<?xml version="1.0" encoding="utf-8"?>
<!-- Generator: Adobe Illustrator 15.1.0, SVG Export Plug-In . SVG Version: 6.00 Build 0)  -->
<!DOCTYPE svg PUBLIC "-//W3C//DTD SVG 1.1//EN" "http://www.w3.org/Graphics/SVG/1.1/DTD/svg11.dtd">
<svg version="1.1" id="Layer_2" xmlns="http://www.w3.org/2000/svg" xmlns:xlink="http://www.w3.org/1999/xlink" x="0px" y="0px"
	 width="505px" height="460px" viewBox="0 0 505 460" enable-background="new 0 0 505 460" xml:space="preserve">
<rect fill="#9F334A" width="505" height="460"/>
<g id="Layer_1">
	<g>
		<path fill="#FFFFFF" d="M73.733,72.347h14.866v90.311h46.753v13.528H73.733V72.347z"/>
		<path fill="#FFFFFF" d="M237.853,152.103v16.352c-10.902,5.947-23.488,8.92-37.759,8.92c-11.596,0-21.433-2.329-29.509-6.987
			c-8.078-4.657-14.47-11.075-19.177-19.251c-4.708-8.176-7.061-17.021-7.061-26.536c0-15.113,5.389-27.824,16.167-38.131
			c10.778-10.306,24.07-15.46,39.878-15.46c10.9,0,23.016,2.85,36.347,8.548v15.981c-12.141-6.937-24.008-10.406-35.604-10.406
			c-11.893,0-21.767,3.754-29.621,11.261c-7.854,7.507-11.781,16.91-11.781,28.208c0,11.398,3.865,20.763,11.595,28.096
			c7.73,7.334,17.616,11.001,29.657,11.001C213.571,163.698,225.86,159.833,237.853,152.103z"/>
	</g>
	<g>
		<path fill="#FFFFFF" d="M156.313,209.018h13.899v103.838h-14.94v-80.796l-31.924,40.138h-2.75l-32.296-40.138v80.796H73.436
			V209.018h14.074l34.504,42.646L156.313,209.018z"/>
		<path fill="#FFFFFF" d="M192.734,209.018H207.6v103.838h-14.866V209.018z"/>
		<path fill="#FFFFFF" d="M230.642,209.018h14.866v90.31h46.753v13.528h-61.619V209.018z"/>
		<path fill="#FFFFFF" d="M305.269,209.018h14.866v90.31h46.753v13.528h-61.619V209.018z"/>
		<path fill="#FFFFFF" d="M405.614,269.349l-11.299-6.864c-7.086-4.327-12.128-8.583-15.126-12.771
			c-2.998-4.187-4.496-9.006-4.496-14.458c0-8.176,2.836-14.816,8.51-19.92c5.674-5.104,13.045-7.656,22.113-7.656
			c8.671,0,16.624,2.435,23.86,7.303v16.873c-7.483-7.197-15.535-10.796-24.157-10.796c-4.857,0-8.846,1.123-11.967,3.369
			c-3.122,2.246-4.684,5.121-4.684,8.625c0,3.11,1.15,6.023,3.449,8.737c2.3,2.715,5.998,5.565,11.094,8.551l11.354,6.719
			c12.665,7.565,18.998,17.194,18.998,28.889c0,8.325-2.787,15.089-8.362,20.292c-5.574,5.203-12.821,7.805-21.741,7.805
			c-10.258,0-19.599-3.152-28.022-9.459v-18.879c8.027,10.171,17.319,15.256,27.874,15.256c4.657,0,8.535-1.296,11.632-3.889
			c3.097-2.592,4.646-5.838,4.646-9.739C419.291,281.016,414.73,275.021,405.614,269.349z"/>
	</g>
	<g>
		<path fill="#FFFFFF" d="M108.781,375.759v6.3c-4.2,2.29-9.048,3.436-14.546,3.436c-4.467,0-8.256-0.896-11.368-2.691
			c-3.112-1.794-5.574-4.267-7.388-7.416c-1.813-3.15-2.72-6.558-2.72-10.223c0-5.822,2.076-10.719,6.228-14.689
			c4.152-3.97,9.272-5.956,15.362-5.956c4.199,0,8.867,1.099,14.002,3.293v6.156c-4.677-2.672-9.249-4.009-13.716-4.009
			c-4.582,0-8.385,1.446-11.411,4.339c-3.026,2.892-4.539,6.514-4.539,10.866c0,4.391,1.489,7.999,4.467,10.823
			c2.978,2.826,6.787,4.238,11.425,4.238C99.428,380.226,104.162,378.736,108.781,375.759z"/>
		<path fill="#FFFFFF" d="M135.454,344.462c6.181,0,11.327,1.957,15.438,5.87c4.111,3.913,6.167,8.819,6.167,14.718
			s-2.075,10.78-6.224,14.646c-4.149,3.865-9.381,5.798-15.695,5.798c-6.028,0-11.05-1.933-15.066-5.798
			c-4.016-3.866-6.023-8.71-6.023-14.532c0-5.975,2.022-10.919,6.066-14.832C124.161,346.419,129.273,344.462,135.454,344.462z
			 M135.684,349.902c-4.578,0-8.339,1.432-11.286,4.295s-4.42,6.52-4.42,10.967c0,4.314,1.478,7.903,4.434,10.767
			s6.656,4.295,11.1,4.295c4.462,0,8.186-1.46,11.171-4.381s4.478-6.558,4.478-10.91c0-4.237-1.493-7.803-4.478-10.694
			S140.031,349.902,135.684,349.902z"/>
		<path fill="#FFFFFF" d="M195.886,345.034h5.44v40.002h-4.925l-26.744-30.808v30.808h-5.383v-40.002h4.639l26.973,31.069V345.034z"
			/>
		<path fill="#FFFFFF" d="M219.795,368.275l-4.352-2.644c-2.73-1.667-4.672-3.307-5.827-4.92c-1.155-1.613-1.732-3.47-1.732-5.569
			c0-3.15,1.093-5.708,3.279-7.674c2.186-1.967,5.025-2.95,8.519-2.95c3.34,0,6.404,0.938,9.191,2.813v6.5
			c-2.882-2.772-5.984-4.159-9.306-4.159c-1.871,0-3.407,0.433-4.61,1.298s-1.804,1.973-1.804,3.323
			c0,1.197,0.443,2.319,1.329,3.365c0.886,1.046,2.31,2.145,4.273,3.294l4.374,2.589c4.879,2.914,7.318,6.624,7.318,11.129
			c0,3.207-1.073,5.813-3.221,7.816c-2.147,2.005-4.939,3.007-8.375,3.007c-3.952,0-7.55-1.214-10.795-3.644v-7.273
			c3.092,3.919,6.672,5.878,10.738,5.878c1.794,0,3.288-0.5,4.481-1.498c1.193-0.999,1.79-2.249,1.79-3.752
			C225.064,372.771,223.308,370.461,219.795,368.275z"/>
		<path fill="#FFFFFF" d="M264.579,345.034h5.755v22.707c0,3.073-0.225,5.393-0.673,6.958s-1.002,2.868-1.66,3.908
			c-0.659,1.041-1.466,1.972-2.42,2.792c-3.169,2.73-7.312,4.095-12.427,4.095c-5.212,0-9.393-1.355-12.542-4.065
			c-0.955-0.84-1.761-1.78-2.42-2.821c-0.658-1.04-1.202-2.314-1.632-3.822s-0.645-3.875-0.645-7.102v-22.649h5.756v22.707
			c0,3.761,0.43,6.376,1.288,7.846c0.859,1.47,2.167,2.648,3.923,3.536s3.827,1.332,6.214,1.332c3.397,0,6.166-0.888,8.304-2.663
			c1.126-0.954,1.938-2.081,2.434-3.379s0.745-3.522,0.745-6.672V345.034z"/>
		<path fill="#FFFFFF" d="M278.266,345.034h5.728v34.791h18.011v5.211h-23.738V345.034z"/>
		<path fill="#FFFFFF" d="M297.737,344.978h33.416v5.097h-13.944v34.962h-5.756v-34.962h-13.716V344.978z"/>
		<path fill="#FFFFFF" d="M336.622,345.034h5.727v40.002h-5.727V345.034z"/>
		<path fill="#FFFFFF" d="M383.009,345.034h5.44v40.002h-4.925l-26.744-30.808v30.808h-5.384v-40.002h4.639l26.974,31.069V345.034z"
			/>
		<path fill="#FFFFFF" d="M418.63,365.336h13.43v16.951c-4.926,2.139-9.813,3.207-14.661,3.207c-6.624,0-11.916-1.933-15.877-5.798
			c-3.962-3.866-5.942-8.634-5.942-14.303c0-5.975,2.052-10.948,6.156-14.919c4.104-3.97,9.249-5.956,15.435-5.956
			c2.252,0,4.39,0.244,6.414,0.73c2.022,0.487,4.581,1.38,7.674,2.678v5.841c-4.772-2.768-9.507-4.151-14.203-4.151
			c-4.371,0-8.056,1.488-11.053,4.467c-2.997,2.978-4.495,6.634-4.495,10.967c0,4.543,1.498,8.256,4.495,11.139
			s6.854,4.323,11.568,4.323c2.291,0,5.03-0.524,8.218-1.574l0.544-0.172v-8.333h-7.702V365.336z"/>
	</g>
</g>
</svg>
